<svg width="238" height="100" viewBox="0 0 238 100" fill="none" xmlns="http://www.w3.org/2000/svg">
<path d="M-1.33562e-05 76.3888L0 0L100 1.74846e-05L100 76.3888L50 99.9999L-1.33562e-05 76.3888Z" fill="#CA7AFF"/>
<path d="M100 11.1113H99.999V76.3887L88.8877 70.833V11.1113H11.1113L0 0H100V11.1113Z" fill="#A31AFF"/>
<path d="M50 88.8884L100 65.2773V76.3884L50 99.9995V88.8884Z" fill="#7600C5"/>
<path d="M49.9996 25L59.7218 29.8611V39.5833L49.9996 44.4444L40.2773 39.5833V29.8611L49.9996 25Z" fill="#333333"/>
<path d="M63.89 51.6976L50.0012 44.4443L36.1124 51.6976L36.1123 74.9999H63.8899L63.89 51.6976Z" fill="#333333"/>
<path d="M232.098 87.9287C229.52 87.9287 227.528 87.2696 226.122 85.9514C224.716 84.604 224.013 82.6267 224.013 80.0196V58.9727H229.506V79.8878C229.506 81.0009 229.784 81.8651 230.34 82.4802C230.926 83.0954 231.732 83.403 232.757 83.403C233.987 83.403 235.013 83.0807 235.833 82.4363L237.371 86.3469C236.726 86.8742 235.935 87.2696 234.998 87.5333C234.061 87.7969 233.094 87.9287 232.098 87.9287ZM220.146 68.5514V64.1575H235.789V68.5514H220.146Z" fill="#7600C5"/>
<path d="M193.187 87.6208V64.1572H198.415V70.4845L197.493 68.5511C198.313 67.0572 199.499 65.9148 201.052 65.1239C202.633 64.3037 204.45 63.8936 206.5 63.8936C208.375 63.8936 210.045 64.2597 211.509 64.992C213.003 65.7244 214.175 66.8521 215.024 68.3754C215.874 69.8693 216.299 71.8026 216.299 74.1754V87.6208H210.806V74.8784C210.806 72.7986 210.308 71.2461 209.312 70.2208C208.346 69.1956 206.983 68.6829 205.226 68.6829C203.937 68.6829 202.795 68.9466 201.799 69.4739C200.803 70.0011 200.026 70.792 199.47 71.8466C198.943 72.8718 198.679 74.1754 198.679 75.7572V87.6208H193.187Z" fill="#7600C5"/>
<path d="M180.953 87.6208V82.8754L180.645 81.8648V73.5602C180.645 71.9491 180.162 70.7042 179.195 69.8254C178.229 68.9173 176.764 68.4632 174.801 68.4632C173.483 68.4632 172.18 68.6683 170.891 69.0784C169.631 69.4885 168.562 70.0597 167.683 70.792L165.53 66.7936C166.79 65.8269 168.284 65.1092 170.012 64.6405C171.77 64.1425 173.586 63.8936 175.46 63.8936C178.858 63.8936 181.48 64.7138 183.326 66.3542C185.2 67.9653 186.138 70.4698 186.138 73.8678V87.6208H180.953ZM173.571 87.9284C171.814 87.9284 170.276 87.6355 168.957 87.0496C167.639 86.4345 166.614 85.5996 165.882 84.5451C165.179 83.4612 164.827 82.2456 164.827 80.8981C164.827 79.5799 165.135 78.3936 165.75 77.339C166.394 76.2845 167.434 75.4496 168.87 74.8345C170.305 74.2193 172.209 73.9117 174.582 73.9117H181.392V77.5587H174.977C173.102 77.5587 171.843 77.8663 171.198 78.4814C170.554 79.0673 170.232 79.7996 170.232 80.6784C170.232 81.6744 170.627 82.4653 171.418 83.0511C172.209 83.637 173.307 83.9299 174.714 83.9299C176.061 83.9299 177.262 83.6223 178.317 83.0072C179.4 82.392 180.177 81.484 180.645 80.283L181.568 83.5784C181.041 84.9552 180.089 86.0244 178.712 86.786C177.365 87.5476 175.651 87.9284 173.571 87.9284Z" fill="#7600C5"/>
<path d="M153.795 87.6216V55.0186H159.287V87.6216H153.795Z" fill="#7600C5"/>
<path d="M127.408 80.3718L127.101 73.6052L143.227 56.8643H149.642L136.24 71.1006L133.077 74.5718L127.408 80.3718ZM122.312 87.6218V56.8643H128.024V87.6218H122.312ZM143.754 87.6218L131.978 73.6052L135.757 69.4309L150.433 87.6218H143.754Z" fill="#7600C5"/>
<path d="M192.342 39.137V21.4704H195.408V26.237L194.908 24.9704C195.486 23.8148 196.375 22.9148 197.575 22.2704C198.775 21.6259 200.175 21.3037 201.775 21.3037C203.22 21.3037 204.486 21.5815 205.575 22.137C206.686 22.6926 207.553 23.537 208.175 24.6704C208.797 25.8037 209.108 27.237 209.108 28.9704V39.137H205.908V29.337C205.908 27.6259 205.486 26.337 204.642 25.4704C203.82 24.6037 202.653 24.1704 201.142 24.1704C200.008 24.1704 199.02 24.3926 198.175 24.837C197.331 25.2815 196.675 25.937 196.208 26.8037C195.764 27.6704 195.542 28.7482 195.542 30.037V39.137H192.342Z" fill="#333333"/>
<path d="M179.798 39.337C177.909 39.337 176.242 38.9482 174.798 38.1704C173.376 37.3926 172.265 36.3259 171.465 34.9704C170.687 33.6148 170.298 32.0593 170.298 30.3037C170.298 28.5482 170.676 26.9926 171.431 25.637C172.209 24.2815 173.265 23.2259 174.598 22.4704C175.953 21.6926 177.476 21.3037 179.165 21.3037C180.876 21.3037 182.387 21.6815 183.698 22.437C185.009 23.1926 186.031 24.2593 186.765 25.637C187.52 26.9926 187.898 28.5815 187.898 30.4037C187.898 30.537 187.887 30.6926 187.865 30.8704C187.865 31.0482 187.853 31.2148 187.831 31.3704H172.798V29.0704H186.165L184.865 29.8704C184.887 28.737 184.653 27.7259 184.165 26.837C183.676 25.9482 182.998 25.2593 182.131 24.7704C181.287 24.2593 180.298 24.0037 179.165 24.0037C178.053 24.0037 177.065 24.2593 176.198 24.7704C175.331 25.2593 174.653 25.9593 174.165 26.8704C173.676 27.7593 173.431 28.7815 173.431 29.937V30.4704C173.431 31.6482 173.698 32.7037 174.231 33.637C174.787 34.5482 175.553 35.2593 176.531 35.7704C177.509 36.2815 178.631 36.537 179.898 36.537C180.942 36.537 181.887 36.3593 182.731 36.0037C183.598 35.6482 184.353 35.1148 184.998 34.4037L186.765 36.4704C185.965 37.4037 184.965 38.1148 183.765 38.6037C182.587 39.0926 181.265 39.337 179.798 39.337Z" fill="#333333"/>
<path d="M158.577 39.337C157.11 39.337 155.766 39.0037 154.543 38.337C153.343 37.6482 152.377 36.637 151.643 35.3037C150.932 33.9704 150.577 32.3037 150.577 30.3037C150.577 28.3037 150.921 26.637 151.61 25.3037C152.321 23.9704 153.277 22.9704 154.477 22.3037C155.699 21.637 157.066 21.3037 158.577 21.3037C160.31 21.3037 161.843 21.6815 163.177 22.437C164.51 23.1926 165.566 24.2482 166.343 25.6037C167.121 26.937 167.51 28.5037 167.51 30.3037C167.51 32.1037 167.121 33.6815 166.343 35.037C165.566 36.3926 164.51 37.4482 163.177 38.2037C161.843 38.9593 160.31 39.337 158.577 39.337ZM149.21 45.6037V21.4704H152.277V26.237L152.077 30.337L152.41 34.437V45.6037H149.21ZM158.31 36.537C159.443 36.537 160.454 36.2815 161.343 35.7704C162.254 35.2593 162.966 34.537 163.477 33.6037C164.01 32.6482 164.277 31.5482 164.277 30.3037C164.277 29.037 164.01 27.9482 163.477 27.037C162.966 26.1037 162.254 25.3815 161.343 24.8704C160.454 24.3593 159.443 24.1037 158.31 24.1037C157.199 24.1037 156.188 24.3593 155.277 24.8704C154.388 25.3815 153.677 26.1037 153.143 27.037C152.632 27.9482 152.377 29.037 152.377 30.3037C152.377 31.5482 152.632 32.6482 153.143 33.6037C153.677 34.537 154.388 35.2593 155.277 35.7704C156.188 36.2815 157.199 36.537 158.31 36.537Z" fill="#333333"/>
<path d="M132.215 39.4028C130.437 39.4028 128.781 39.1028 127.248 38.5028C125.737 37.9028 124.426 37.0695 123.315 36.0028C122.203 34.9139 121.337 33.6472 120.715 32.2028C120.092 30.7584 119.781 29.1806 119.781 27.4695C119.781 25.7584 120.092 24.1806 120.715 22.7361C121.337 21.2917 122.203 20.0361 123.315 18.9695C124.426 17.8806 125.737 17.0361 127.248 16.4361C128.759 15.8361 130.415 15.5361 132.215 15.5361C133.992 15.5361 135.626 15.8361 137.115 16.4361C138.626 17.0139 139.937 17.8472 141.048 18.9361C142.181 20.0028 143.048 21.2584 143.648 22.7028C144.27 24.1472 144.581 25.7361 144.581 27.4695C144.581 29.2028 144.27 30.7917 143.648 32.2361C143.048 33.6806 142.181 34.9472 141.048 36.0361C139.937 37.1028 138.626 37.9361 137.115 38.5361C135.626 39.1139 133.992 39.4028 132.215 39.4028ZM132.215 36.4361C133.503 36.4361 134.692 36.2139 135.781 35.7695C136.892 35.325 137.848 34.7028 138.648 33.9028C139.47 33.0806 140.103 32.125 140.548 31.0361C141.015 29.9472 141.248 28.7584 141.248 27.4695C141.248 26.1806 141.015 24.9917 140.548 23.9028C140.103 22.8139 139.47 21.8695 138.648 21.0695C137.848 20.2472 136.892 19.6139 135.781 19.1695C134.692 18.725 133.503 18.5028 132.215 18.5028C130.903 18.5028 129.692 18.725 128.581 19.1695C127.492 19.6139 126.537 20.2472 125.715 21.0695C124.892 21.8695 124.248 22.8139 123.781 23.9028C123.337 24.9917 123.115 26.1806 123.115 27.4695C123.115 28.7584 123.337 29.9472 123.781 31.0361C124.248 32.125 124.892 33.0806 125.715 33.9028C126.537 34.7028 127.492 35.325 128.581 35.7695C129.692 36.2139 130.903 36.4361 132.215 36.4361Z" fill="#333333"/>
</svg>
